# xmcd
#
# Track frame offsets:
#	150
#	18768
#	37397
#	57214
#	74982
#	93914
#	111072
#	128252
#	144041
#	160957
#	178223
#	192304
#	206396
#	223440
#	241687
#	259993
#
# Disc length: 3733 seconds
#
# Revision: 1
# Processed by: cddbd v1.5.2PL0 Copyright (c) Steve Scherf et al.
# Submitted via: audiograbber 1.83.01
#
DISCID=ea0e9310
DTITLE=Singing Machine-Various - Pop Culture Country Male Vol. 2
DYEAR=1900
DGENRE=
TTITLE0=Faith Hill - Mississippi Girl
TTITLE1=Reba McEntire - My Sister
TTITLE2=Faith Hill - Like We Never Loved At All
TTITLE3=Bonnie Raitt - Thing Called Love
TTITLE4=Sara Evans - A Real Fine Place To Start
TTITLE5=Gretchen Wilson - All Jacked Up
TTITLE6=LeAnn Rimes - Probably Wouldn't Be This Way
TTITLE7=Terri Clark - She Didn't Have Time
TTITLE8=Lee Ann Womack - He Oughta Know That By Now
TTITLE9=Jamie O'Neal - Somebody's Hero
TTITLE10=Miranda Lambert - Kerosene
TTITLE11=Jamie O'Neal - I Love My Life
TTITLE12=Faith Hill - The Lucky One
TTITLE13=LeAnn Rimes - Something's Gotta Give
TTITLE14=Carrie Underwood - Inside Your Heaven
TTITLE15=Dixie Chicks - Goodbye Earl
EXTD=
EXTT0=
EXTT1=
EXTT2=
EXTT3=
EXTT4=
EXTT5=
EXTT6=
EXTT7=
EXTT8=
EXTT9=
EXTT10=
EXTT11=
EXTT12=
EXTT13=
EXTT14=
EXTT15=
PLAYORDER=
